<?xml version="1.0" encoding="UTF-8"?>
<svg xmlns="http://www.w3.org/2000/svg" xmlns:svg="http://www.w3.org/2000/svg" xmlns:inkscape="http://www.inkscape.org/namespaces/inkscape" xmlns:sodipodi="http://sodipodi.sourceforge.net/DTD/sodipodi-0.dtd" width="100" height="100" viewBox="83.439354 97.342026 100 100" version="1.1"><defs
     id="defs1" /><g
     inkscape:label="Layer 1"
     inkscape:groupmode="layer"
     id="layer1"><rect
       style="fill:#383838;fill-opacity:1;stroke:none;stroke-width:0.5;stroke-linecap:round;stroke-linejoin:round;stroke-dasharray:1.6, 1.6;stroke-opacity:1"
       id="rect1"
       width="100"
       height="100"
       x="83.439354"
       y="97.342026"
       inkscape:export-filename="circuit_stitch.png"
       inkscape:export-xdpi="96"
       inkscape:export-ydpi="96" /><g
       id="g1"
       transform="matrix(11.507736,0,0,11.507736,90.56783,115.19027)"
       style="stroke-width:0.00868981;stroke:none;stroke-opacity:1;fill:#b87333;fill-opacity:1"
       inkscape:export-filename="Exports\circuit_stitch.png"
       inkscape:export-xdpi="96"
       inkscape:export-ydpi="96"><g
         id="g1120"
         style="display:inline;stroke-width:0.17379613;stroke:#ffd700;stroke-opacity:1;fill:none;fill-opacity:1"
         transform="translate(-157.12501,-121.47422)"><path
           d="m 159.0875,125.7125 v 0.5"
           id="path496"
           style="fill:none;stroke:#ffd700;stroke-width:0.17379613;stroke-linecap:round;stroke-linejoin:round;stroke-opacity:1;fill-opacity:1" /><path
           d="M 160.45,122.95 H 160.1"
           id="path497"
           style="fill:none;stroke:#ffd700;stroke-width:0.17379613;stroke-linecap:round;stroke-linejoin:round;stroke-opacity:1;fill-opacity:1" /><path
           d="m 158.2875,124.9625 v 0.3"
           id="path498"
           style="fill:none;stroke:#ffd700;stroke-width:0.17379613;stroke-linecap:round;stroke-linejoin:round;stroke-opacity:1;fill-opacity:1" /><path
           d="m 158.8375,125.4625 0.25,0.25"
           id="path499"
           style="fill:none;stroke:#ffd700;stroke-width:0.17379613;stroke-linecap:round;stroke-linejoin:round;stroke-opacity:1;fill-opacity:1" /><path
           d="m 158.7875,124.7125 h -0.25"
           id="path500"
           style="fill:none;stroke:#ffd700;stroke-width:0.17379613;stroke-linecap:round;stroke-linejoin:round;stroke-opacity:1;fill-opacity:1" /><path
           d="m 158.8375,126.4625 h -0.4"
           id="path501"
           style="fill:none;stroke:#ffd700;stroke-width:0.17379613;stroke-linecap:round;stroke-linejoin:round;stroke-opacity:1;fill-opacity:1" /><path
           d="m 158.5375,124.7125 -0.25,0.25"
           id="path502"
           style="fill:none;stroke:#ffd700;stroke-width:0.17379613;stroke-linecap:round;stroke-linejoin:round;stroke-opacity:1;fill-opacity:1" /><path
           d="m 159.0875,126.2125 -0.25,0.25"
           id="path503"
           style="fill:none;stroke:#ffd700;stroke-width:0.17379613;stroke-linecap:round;stroke-linejoin:round;stroke-opacity:1;fill-opacity:1" /><path
           d="m 158.4875,125.4625 h 0.35"
           id="path504"
           style="fill:none;stroke:#ffd700;stroke-width:0.17379613;stroke-linecap:round;stroke-linejoin:round;stroke-opacity:1;fill-opacity:1" /><path
           d="M 160.5375,126.475 V 125.45"
           id="path505"
           style="fill:none;stroke:#ffd700;stroke-width:0.17379613;stroke-linecap:round;stroke-linejoin:round;stroke-opacity:1;fill-opacity:1" /><path
           d="m 159.85,123.2 v 0.75"
           id="path506"
           style="fill:none;stroke:#ffd700;stroke-width:0.17379613;stroke-linecap:round;stroke-linejoin:round;stroke-opacity:1;fill-opacity:1" /><path
           d="m 158.4375,126.4625 -0.25,-0.25"
           id="path507"
           style="fill:none;stroke:#ffd700;stroke-width:0.17379613;stroke-linecap:round;stroke-linejoin:round;stroke-opacity:1;fill-opacity:1" /><path
           d="m 158.2875,125.2625 0.2,0.2"
           id="path508"
           style="fill:none;stroke:#ffd700;stroke-width:0.17379613;stroke-linecap:round;stroke-linejoin:round;stroke-opacity:1;fill-opacity:1" /><path
           d="m 158.7875,124.7125 0.25,0.25"
           id="path509"
           style="fill:none;stroke:#ffd700;stroke-width:0.17379613;stroke-linecap:round;stroke-linejoin:round;stroke-opacity:1;fill-opacity:1" /><path
           d="m 163.625,123.75 v -0.8"
           id="path510"
           style="fill:none;stroke:#ffd700;stroke-width:0.17379613;stroke-linecap:round;stroke-linejoin:round;stroke-opacity:1;fill-opacity:1" /><path
           d="m 160.1,122.95 -0.25,0.25"
           id="path511"
           style="fill:none;stroke:#ffd700;stroke-width:0.17379613;stroke-linecap:round;stroke-linejoin:round;stroke-opacity:1;fill-opacity:1" /><path
           d="m 163.825,123.95 -0.2,-0.2"
           id="path512"
           style="fill:none;stroke:#ffd700;stroke-width:0.17379613;stroke-linecap:round;stroke-linejoin:round;stroke-opacity:1;fill-opacity:1" /><path
           d="M 159.3,123.975 V 122.95"
           id="path513"
           style="fill:none;stroke:#ffd700;stroke-width:0.17379613;stroke-linecap:round;stroke-linejoin:round;stroke-opacity:1;fill-opacity:1" /><path
           d="m 164.075,123.95 h -0.25"
           id="path514"
           style="fill:none;stroke:#ffd700;stroke-width:0.17379613;stroke-linecap:round;stroke-linejoin:round;stroke-opacity:1;fill-opacity:1" /><path
           d="m 159.5875,126.2625 v -0.8"
           id="path515"
           style="fill:none;stroke:#ffd700;stroke-width:0.17379613;stroke-linecap:round;stroke-linejoin:round;stroke-opacity:1;fill-opacity:1" /><path
           d="m 159.7875,126.4625 -0.2,-0.2"
           id="path516"
           style="fill:none;stroke:#ffd700;stroke-width:0.17379613;stroke-linecap:round;stroke-linejoin:round;stroke-opacity:1;fill-opacity:1" /><path
           d="m 161.5875,126.4625 h -0.25"
           id="path518"
           style="fill:none;stroke:#ffd700;stroke-width:0.17379613;stroke-linecap:round;stroke-linejoin:round;stroke-opacity:1;fill-opacity:1" /><path
           d="m 161.1375,126.2625 v -0.8"
           id="path519"
           style="fill:none;stroke:#ffd700;stroke-width:0.17379613;stroke-linecap:round;stroke-linejoin:round;stroke-opacity:1;fill-opacity:1" /><path
           d="m 161.3375,126.4625 -0.2,-0.2"
           id="path520"
           style="fill:none;stroke:#ffd700;stroke-width:0.17379613;stroke-linecap:round;stroke-linejoin:round;stroke-opacity:1;fill-opacity:1" /><path
           d="m 160.0375,126.4625 h -0.25"
           id="path521"
           style="fill:none;stroke:#ffd700;stroke-width:0.17379613;stroke-linecap:round;stroke-linejoin:round;stroke-opacity:1;fill-opacity:1" /><path
           d="m 163.625,122.95 v -0.5"
           id="path522"
           style="fill:none;stroke:#ffd700;stroke-width:0.17379613;stroke-linecap:round;stroke-linejoin:round;stroke-opacity:1;fill-opacity:1" /><path
           d="m 164.075,122.95 h -0.45"
           id="path523"
           style="fill:none;stroke:#ffd700;stroke-width:0.17379613;stroke-linecap:round;stroke-linejoin:round;stroke-opacity:1;fill-opacity:1" /><path
           d="m 161.1375,125.4625 v -0.5"
           id="path524"
           style="fill:none;stroke:#ffd700;stroke-width:0.17379613;stroke-linecap:round;stroke-linejoin:round;stroke-opacity:1;fill-opacity:1" /><path
           d="m 161.5875,125.4625 h -0.45"
           id="path525"
           style="fill:none;stroke:#ffd700;stroke-width:0.17379613;stroke-linecap:round;stroke-linejoin:round;stroke-opacity:1;fill-opacity:1" /><path
           d="m 161.9625,125.7125 v 0.5"
           id="path526"
           style="fill:none;stroke:#ffd700;stroke-width:0.17379613;stroke-linecap:round;stroke-linejoin:round;stroke-opacity:1;fill-opacity:1" /><path
           d="m 161.9625,126.2125 0.25,0.25"
           id="path527"
           style="fill:none;stroke:#ffd700;stroke-width:0.17379613;stroke-linecap:round;stroke-linejoin:round;stroke-opacity:1;fill-opacity:1" /><path
           d="m 162.5625,125.4625 h -0.35"
           id="path528"
           style="fill:none;stroke:#ffd700;stroke-width:0.17379613;stroke-linecap:round;stroke-linejoin:round;stroke-opacity:1;fill-opacity:1" /><path
           d="m 162.2125,125.4625 -0.25,0.25"
           id="path529"
           style="fill:none;stroke:#ffd700;stroke-width:0.17379613;stroke-linecap:round;stroke-linejoin:round;stroke-opacity:1;fill-opacity:1" /><path
           d="m 162.2125,126.4625 h 0.35"
           id="path530"
           style="fill:none;stroke:#ffd700;stroke-width:0.17379613;stroke-linecap:round;stroke-linejoin:round;stroke-opacity:1;fill-opacity:1" /><path
           d="m 161.05,123.95 h 0.35"
           id="path531"
           style="fill:none;stroke:#ffd700;stroke-width:0.17379613;stroke-linecap:round;stroke-linejoin:round;stroke-opacity:1;fill-opacity:1" /><path
           d="m 160.8,123.2 v 0.5"
           id="path532"
           style="fill:none;stroke:#ffd700;stroke-width:0.17379613;stroke-linecap:round;stroke-linejoin:round;stroke-opacity:1;fill-opacity:1" /><path
           d="m 161.4,122.95 h -0.35"
           id="path533"
           style="fill:none;stroke:#ffd700;stroke-width:0.17379613;stroke-linecap:round;stroke-linejoin:round;stroke-opacity:1;fill-opacity:1" /><path
           d="m 161.05,122.95 -0.25,0.25"
           id="path534"
           style="fill:none;stroke:#ffd700;stroke-width:0.17379613;stroke-linecap:round;stroke-linejoin:round;stroke-opacity:1;fill-opacity:1" /><path
           d="m 160.8,123.7 0.25,0.25"
           id="path535"
           style="fill:none;stroke:#ffd700;stroke-width:0.17379613;stroke-linecap:round;stroke-linejoin:round;stroke-opacity:1;fill-opacity:1" /><path
           d="m 163.0625,126.4625 v -0.825"
           id="path536"
           style="fill:none;stroke:#ffd700;stroke-width:0.17379613;stroke-linecap:round;stroke-linejoin:round;stroke-opacity:1;fill-opacity:1" /><path
           d="m 163.0625,125.6375 v -0.175"
           id="path537"
           style="fill:none;stroke:#ffd700;stroke-width:0.17379613;stroke-linecap:round;stroke-linejoin:round;stroke-opacity:1;fill-opacity:1" /><path
           d="m 163.4875,125.4625 0.175,0.175"
           id="path538"
           style="fill:none;stroke:#ffd700;stroke-width:0.17379613;stroke-linecap:round;stroke-linejoin:round;stroke-opacity:1;fill-opacity:1" /><path
           d="m 163.6625,125.6375 v 0.825"
           id="path539"
           style="fill:none;stroke:#ffd700;stroke-width:0.17379613;stroke-linecap:round;stroke-linejoin:round;stroke-opacity:1;fill-opacity:1" /><path
           d="m 163.0625,125.6375 v -1"
           id="path540"
           style="fill:none;stroke:#ffd700;stroke-width:0.17379613;stroke-linecap:round;stroke-linejoin:round;stroke-opacity:1;fill-opacity:1" /><path
           d="m 163.0625,125.4625 h 0.425"
           id="path541"
           style="fill:none;stroke:#ffd700;stroke-width:0.17379613;stroke-linecap:round;stroke-linejoin:round;stroke-opacity:1;fill-opacity:1" /><path
           d="m 162.4,122.95 v 1"
           id="path542"
           style="fill:none;stroke:#ffd700;stroke-width:0.17379613;stroke-linecap:round;stroke-linejoin:round;stroke-opacity:1;fill-opacity:1" /><path
           d="M 162.4,123.95 H 162"
           id="path543"
           style="fill:none;stroke:#ffd700;stroke-width:0.17379613;stroke-linecap:round;stroke-linejoin:round;stroke-opacity:1;fill-opacity:1" /><path
           d="m 162,123.95 -0.2,-0.2"
           id="path544"
           style="fill:none;stroke:#ffd700;stroke-width:0.17379613;stroke-linecap:round;stroke-linejoin:round;stroke-opacity:1;fill-opacity:1" /><path
           d="m 161.8,123.75 v -0.8"
           id="path545"
           style="fill:none;stroke:#ffd700;stroke-width:0.17379613;stroke-linecap:round;stroke-linejoin:round;stroke-opacity:1;fill-opacity:1" /><path
           d="M 158.05,123.95 157.8,123.7"
           id="path546"
           style="fill:none;stroke:#ffd700;stroke-width:0.17379613;stroke-linecap:round;stroke-linejoin:round;stroke-opacity:1;fill-opacity:1" /><path
           d="m 157.8,123.7 v -1.25"
           id="path547"
           style="fill:none;stroke:#ffd700;stroke-width:0.17379613;stroke-linecap:round;stroke-linejoin:round;stroke-opacity:1;fill-opacity:1" /><path
           d="m 158.05,122.2 h 0.5"
           id="path548"
           style="fill:none;stroke:#ffd700;stroke-width:0.17379613;stroke-linecap:round;stroke-linejoin:round;stroke-opacity:1;fill-opacity:1" /><path
           d="m 158.05,123.95 h 0.5"
           id="path549"
           style="fill:none;stroke:#ffd700;stroke-width:0.17379613;stroke-linecap:round;stroke-linejoin:round;stroke-opacity:1;fill-opacity:1" /><path
           d="m 158.55,122.2 0.25,0.25"
           id="path550"
           style="fill:none;stroke:#ffd700;stroke-width:0.17379613;stroke-linecap:round;stroke-linejoin:round;stroke-opacity:1;fill-opacity:1" /><path
           d="m 157.8,122.45 0.25,-0.25"
           id="path551"
           style="fill:none;stroke:#ffd700;stroke-width:0.17379613;stroke-linecap:round;stroke-linejoin:round;stroke-opacity:1;fill-opacity:1" /><path
           d="m 158.55,123.95 0.25,-0.25"
           id="path552"
           style="fill:none;stroke:#ffd700;stroke-width:0.17379613;stroke-linecap:round;stroke-linejoin:round;stroke-opacity:1;fill-opacity:1" /><path
           d="m 159.5875,125.4625 v -0.5"
           id="path553"
           style="fill:none;stroke:#ffd700;stroke-width:0.17379613;stroke-linecap:round;stroke-linejoin:round;stroke-opacity:1;fill-opacity:1" /><path
           d="m 160.0375,125.4625 h -0.45"
           id="path554"
           style="fill:none;stroke:#ffd700;stroke-width:0.17379613;stroke-linecap:round;stroke-linejoin:round;stroke-opacity:1;fill-opacity:1" /><path
           d="m 163,123.95 v -1.025"
           id="path555"
           style="fill:none;stroke:#ffd700;stroke-width:0.17379613;stroke-linecap:round;stroke-linejoin:round;stroke-opacity:1;fill-opacity:1" /></g><path
         id="circle406"
         d="m 0.77543117,5.3553936e-4 a 0.1,0.1 0 0 0 -0.0129,0.002000001 0.1,0.1 0 0 0 -0.004,5.1e-4 0.1,0.1 0 0 0 -0.0233,0.007 0.1,0.1 0 0 0 -0.007,0.003 0.1,0.1 0 0 0 -0.0232,0.0165 l -0.67593,0.67593 a 0.1,0.1 0 0 0 -0.0191,0.0289 0.1,0.1 0 0 0 -0.005,0.0155 0.1,0.1 0 0 0 -0.003,0.016 0.1,0.1 0 0 0 -0.00200000419,0.01 V 2.5974755 a 0.1,0.1 0 0 0 0.00700000419,0.0382 0.1,0.1 0 0 0 0.003,0.006 0.1,0.1 0 0 0 0.0191,0.0289 0.1,0.1 0 0 0 5.2e-4,10e-4 0.1,0.1 0 0 0 5.1e-4,5.2e-4 l 0.47077,0.47077 v 2.07016 a 0.1,0.1 0 0 0 0.001,0.005 0.1,0.1 0 0 0 0.006,0.0315 0.1,0.1 0 0 0 0.002,0.004 0.1,0.1 0 0 0 0.0202,0.0295 l 0.27544,0.27543 a 0.1,0.1 0 0 0 0.0191,0.015 0.1,0.1 0 0 0 0.004,0.002 0.1,0.1 0 0 0 0.0434,0.0114 0.1,0.1 0 0 0 0.004,10e-4 H 6.7139312 a 0.1,0.1 0 0 0 0.004,-10e-4 0.1,0.1 0 0 0 0.0429,-0.0114 0.1,0.1 0 0 0 0.004,-0.002 0.1,0.1 0 0 0 0.0196,-0.015 l 0.27544,-0.27543 a 0.1,0.1 0 0 0 0.0284,-0.0677 0.1,0.1 0 0 0 5.2e-4,-0.003 v -1.93322 l 0.33228,-0.33434 a 0.1,0.1 0 0 0 0.0202,-0.03 0.1,0.1 0 0 0 0.002,-0.004 0.1,0.1 0 0 0 0.007,-0.0336 0.1,0.1 0 0 0 5.2e-4,-0.003 v -1.76941 a 0.1,0.1 0 0 0 -0.0295,-0.076 l -0.50023,-0.50022996 a 0.1,0.1 0 0 0 -0.0703,-0.0294 h -0.63821 a 0.1,0.1 0 0 0 -0.0253,5.1e-4 l -0.0703,0.004 h -0.002 l -0.062,0.0134 -0.003,0.001 -0.0822,0.0444 -0.002,0.002 -0.0646,0.061 -0.0687,0.0661 -0.0796,0.0615 -0.0605,0.0191 -0.002,0.001 -0.0667,0.0357 -0.0946,0.046 -0.0636,0.0145 -0.0729,0.005 h -2.7311 l -0.001,-5.2e-4 -0.0682,-0.004 -0.061,-0.0129 -0.10232,-0.048 -0.0806,-0.0424 -0.002,-5.2e-4 -0.007,-0.002 -0.0367,-0.0579 h -5.2e-4 l -0.0253,-0.0388 a 0.1,0.1 0 0 0 -0.004,-0.0212 0.1,0.1 0 0 0 -10e-4,-0.003 0.1,0.1 0 0 0 -0.007,-0.015 0.1,0.1 0 0 0 -0.005,-0.008 0.1,0.1 0 0 0 -0.006,-0.008 0.1,0.1 0 0 0 -0.006,-0.007 l -0.13022,-0.12971 -5.2e-4,-5.2e-4 -0.44545,-0.44597 a 0.1,0.1 0 0 0 -0.0207,-0.0155 0.1,0.1 0 0 0 -0.0496,-0.013400000638 z m 0.0408,0.20102000064 H 1.5588212 l 0.41703,0.41703 0.0222,0.0274 0.0145,0.0341 -0.005,0.0574 -0.0264,0.0558 -0.0284,0.0584 -5.2e-4,0.002 -0.008,0.0243 a 0.25,0.25 0 0 0 -0.0196,0.0977 0.25,0.25 0 0 0 0.2496,0.25010996 0.25,0.25 0 0 0 0.0961,-0.0202 l 0.0884,-0.0279 0.002,-5.1e-4 0.0661,-0.0357 0.0951,-0.046 0.063,-0.0145 0.0662,-0.005 h 2.73937 l 0.0682,0.004 0.0605,0.0124 0.10232,0.0486 0.0806,0.0424 0.002,5.1e-4 0.0884,0.0269 a 0.25,0.25 0 0 0 0.0816,0.0145 0.25,0.25 0 0 0 0.25011,-0.25010996 0.25,0.25 0 0 0 -0.002,-0.0289 l 0.001,-0.0233 v -0.002 l -0.008,-0.0677 -0.003,-0.0248 0.12816,-0.12712 h 0.56689 l 0.44132,0.44079996 v 1.69188 l -0.26252,0.26252 -0.31729,-0.3173 a 0.1,0.1 0 0 0 -0.0284,-0.0191 0.1,0.1 0 0 0 -0.007,-0.003 0.1,0.1 0 0 0 -0.03,-0.006 0.1,0.1 0 0 0 -0.005,-10e-4 h -2.7497 a 0.1,0.1 0 0 0 -0.008,0.002 0.1,0.1 0 0 0 -0.0227,0.005 0.1,0.1 0 0 0 -0.0129,0.005 0.1,0.1 0 0 0 -0.0264,0.0181 l -0.48111,0.48111 -0.016,0.0124 -0.002,0.003 a 0.25,0.25 0 0 0 -0.11834,0.21239 0.25,0.25 0 0 0 0.25012,0.25011 0.25,0.25 0 0 0 0.25011,-0.25011 0.25,0.25 0 0 0 -10e-4,-0.0202 l 0.002,-0.0408 -5.2e-4,-0.003 -0.0134,-0.0765 -0.01,-0.0517 v -0.0496 l 0.0191,-0.0517 0.0398,-0.0506 5.1e-4,-0.002 0.1912,-0.19068 h 2.66806 l 0.32814,0.32763 v 1.8929 l -0.21445,0.21653 H 0.91599117 l -0.21704,-0.21704 v -2.05673 a 0.1,0.1 0 0 0 -0.0289,-0.0853 l -0.47077,-0.47077 V 0.81707554 Z m 5.06533003,0.67127 a 0.09941199,0.09941199 0 0 1 0.0925,0.0889 l 10e-4,0.0103 a 0.09941199,0.09941199 0 0 1 -0.0971,0.0997 0.09941199,0.09941199 0 0 1 -0.1018,-0.094 0.09941199,0.09941199 0 0 1 0.0915,-0.10439 0.09941199,0.09941199 0 0 1 0.0139,-5.2e-4 z m -3.71554,0.001 a 0.09837846,0.09837846 0 0 1 0.10594,0.0879 l 5.2e-4,0.0103 a 0.09837846,0.09837846 0 0 1 -0.0956,0.0987 0.09837846,0.09837846 0 0 1 -0.10128,-0.093 0.09837846,0.09837846 0 0 1 0.0904,-0.10387 z m 1.25316,2.51405996 a 0.0978617,0.0978617 0 0 1 0.0915,0.0873 l 5.2e-4,0.0103 a 0.0978617,0.0978617 0 0 1 -0.0951,0.0982 0.0978617,0.0978617 0 0 1 -0.10026,-0.0925 0.0978617,0.0978617 0 0 1 0.0899,-0.10284 0.0978617,0.0978617 0 0 1 0.0134,-5.1e-4 z"
         style="display:inline;stroke-width:0.00868981;stroke:none;stroke-opacity:1;fill:#ffd700;fill-opacity:1" /></g></g></svg>
