<?xml version="1.0" encoding="UTF-8" standalone="no"?>
<svg xmlns="http://www.w3.org/2000/svg" viewBox="320 125 770 170" role="img" aria-label="Deferno">
  <g fill="#ffffff">
    <path d="m 452.5,208.8 c 0,37.3 -16.1,65.1 -45.4,72.9 -7.6,2 -18.3,3.1 -32.2,3.1 H 323.7 V 149.1 c 0,-10.5 5.1,-16.1 15.7,-16.3 h 43.8 c 48.2,-0.1 69.3,27.4 69.3,76 z m -69.4,-49.5 h -28.8 v 98 h 24.8 c 30.9,0 41.6,-16.5 41.6,-48.5 0,-30.4 -9.4,-49.5 -37.6,-49.5 z"/>
    <path d="m 519.6,287.5 c -35.8,-1.1 -53.7,-21.9 -53.7,-62.2 0,-40.3 18.1,-60.4 54.1,-60.6 37.6,0 55.2,23 53,69.3 h -76.5 c 1.1,18.1 8.9,27.3 23.5,27.3 6.9,0 13.4,-2.9 19.2,-8.5 2.7,-2.9 6,-4.2 10.1,-4.2 h 21.9 c -6.5,25 -22.6,38.9 -51.6,38.9 z M 497,212.8 h 44.5 c -1.8,-15.7 -9.2,-23.7 -21.9,-23.7 -12.8,0 -20.4,8 -22.6,23.7 z"/>
    <path d="m 715.1,287.5 c -35.8,-1.1 -53.7,-21.9 -53.7,-62.2 0,-40.3 18.1,-60.4 54.1,-60.6 37.6,0 55.2,23 53,69.3 H 692 c 1.1,18.1 8.9,27.3 23.5,27.3 6.9,0 13.4,-2.9 19.2,-8.5 2.7,-2.9 6,-4.2 10.1,-4.2 h 21.9 c -6.4,25 -22.5,38.9 -51.6,38.9 z M 692.5,212.8 H 737 c -1.8,-15.7 -9.2,-23.7 -21.9,-23.7 -12.7,0 -20.3,8 -22.6,23.7 z"/>
    <path d="m 782.4,223.8 c 0.9,-38.2 21.2,-57.3 60.8,-57.3 h 4.2 v 30.9 h -10.1 c -16.5,0 -24.8,8.7 -24.8,25.9 v 61.5 h -30.2 v -61 z"/>
    <path d="m 947,284.8 c -9.8,-0.7 -14.8,-5.4 -14.8,-14.8 v -60.8 c -0.7,-12.3 -7.4,-18.3 -20.6,-18.3 -13.2,0 -19.9,6 -20.1,18.3 v 75.6 h -30.2 v -69.6 c 0,-33.8 17,-50.5 50.8,-50.5 33.8,0 50.3,16.8 50.1,50.5 v 69.6 z"/>
    <path d="m 1082.3,226.2 c 0,40.7 -18.1,61.3 -53.9,61.3 -35.8,0 -53.7,-20.6 -53.7,-61.3 0,-41.2 17.9,-61.5 53.7,-61.5 35.8,0 53.9,20.4 53.9,61.5 z m -77.3,0 c 0.2,23 8,34.7 23.3,34.7 15.2,0 22.8,-12.1 23,-35.6 0,-23 -7.6,-34.4 -22.8,-34.4 -15.7,0 -23.5,11 -23.5,35.3 z"/>
    <path d="m 627.2,131.9 c -1.1,0 -2.1,0 -2.8,0 -0.2,0 -0.3,0 -0.5,0 H 623 v 0 c -21.3,0.4 -34,9.4 -32.9,31.5 V 284.8 H 620 v -89 h 20.4 c 8.1,0 14.8,-6.9 14.8,-15 v -6.9 h -35.6 v -7.8 c 0.7,-5.8 4.5,-8.7 11.4,-8.7 h 24.2 V 147 132.8 131.9 Z"/>
  </g>
</svg>
