<?xml version="1.0" encoding="UTF-8" standalone="no"?>
<svg xmlns="http://www.w3.org/2000/svg" viewBox="0 20 1110 360" role="img" aria-label="Deferno">
  <g id="flame">
    <path fill="#ffffff" d="m 150.45065,97.671589 -71.585392,86.145131 -20.32297,76.1353 -4.246591,14.25642 5.459902,13.95308 12.436445,11.82979 6.369886,1.81997 -6.976542,29.72613 4.246591,3.33661 128.307711,25.78287 8.49318,-6.67321 4.24659,-18.80633 25.47954,-11.52646 9.09984,-28.2095 19.71632,-99.79488 -40.94927,-29.11948 -27.90617,-38.82598 -47.31916,-33.972724 z"/>
    <path fill="#b83232" d="m 280.6,185.2 c -6.8,-18.3 -6.7,-31.7 -6.3,-36.9 0.1,-1.2 -1.1,-2 -2.1,-1.6 -12,4.6 -15.9,19.4 -17,25.3 -0.2,1.2 -1.6,1.7 -2.5,0.9 -16.8,-13.7 2.5,-33.4 -8.1,-60.6 -8.2,-21 -23.7,-30.1 -31.1,-33.4 -1.4,-0.6 -2.7,0.8 -2.1,2.1 8,15.7 4,28.1 0.7,34.4 -0.7,1.3 -2.7,1 -2.9,-0.5 C 207.8,104.5 198.6,96.3 183.5,79.1 169.4,63 180.4,41.4 185,34 c 0.7,-1.1 -0.2,-2.5 -1.5,-2.4 -24.3,2.5 -61.4,21.5 -60.7,55.6 0.5,26.6 -9,38.5 -13.8,42.8 -1,0.9 -2.6,0.2 -2.6,-1.2 -0.1,-14.2 -10.5,-22 -15.4,-24.8 -1.1,-0.6 -2.4,0.2 -2.3,1.4 0.6,37.4 -22.7,40.7 -39.3,81.8 -13.9,34.5 -0.7,66.1 4.5,76.4 -0.6,1.5 -1.1,3 -1.4,4.6 -3.5,15.9 8.2,29.1 22.3,34.7 l -4,20.2 c -1.6,8 3.6,15.9 11.7,17.5 l 116.3,23.2 c 1,0.2 2,0.3 2.9,0.3 2.9,0 5.8,-0.9 8.3,-2.5 3.3,-2.3 5.6,-5.7 6.3,-9.6 l 2.9,-15.6 c 6.2,-1.3 23.6,-6.1 30.3,-21.1 2.1,-4.8 2.9,-9.7 2.5,-14.5 47,-37.7 37.3,-92.2 28.6,-115.6 z M 243.8,313 c -3.3,7.5 -10.2,12 -16.4,14.6 -2.7,1.2 -5.3,2 -7.4,2.5 l 1.3,-6.7 c 1.2,0.3 2.5,0.6 3.8,0.9 1.6,0.2 3.1,-0.9 3.4,-2.5 0.2,-1.6 -0.9,-3.1 -2.5,-3.3 -1.3,-0.2 -2.5,-0.5 -3.7,-0.9 -2.1,-0.7 -3.9,-1.6 -5.4,-2.9 -1,-0.8 -1.8,-1.7 -2.5,-2.7 -2.4,-3.5 -3.2,-8.2 -2.2,-13.5 0.2,-0.9 0.4,-1.9 0.7,-2.8 1.7,-5.2 5.3,-9.9 9.7,-12.2 0.4,-0.2 0.8,-0.4 1.2,-0.5 0.1,-0.1 0.3,-0.1 0.4,-0.1 v 0 c 0.3,-0.1 0.7,-0.3 1,-0.3 0.1,-0.1 0.3,-0.1 0.4,-0.1 0.1,0 0.1,-0.1 0.1,0 0.1,-0.1 0.3,-0.1 0.5,-0.1 0.2,-0.1 0.4,-0.1 0.6,-0.1 0.1,0 0.2,0 0.3,-0.1 0.5,-0.1 1.1,-0.1 1.7,-0.1 0.6,0 1.2,0.1 1.8,0.2 0.3,0.1 0.6,0.1 0.9,0.2 4.4,1.2 8.9,5.2 11.6,10.3 1.5,2.9 2.3,5.9 2.5,9 0.5,3.8 -0.2,7.6 -1.8,11.2 z m -37.4,43.8 c -2,1.3 -4.4,1.8 -6.8,1.3 L 83.3,335 c -4.9,-1 -8.1,-5.8 -7.1,-10.6 l 4.4,-22.1 c 0,-0.1 0.1,-0.1 0.1,-0.2 0.1,-0.3 0.1,-0.6 0.1,-0.9 l 1.5,-7.7 c 4,-1 8.2,-3.3 11.7,-8.1 2.1,-2.9 3.6,-6.5 4.4,-10.3 0.9,-4.5 0.8,-9.3 -0.4,-13.9 -0.6,-2.3 -1.4,-4.4 -2.5,-6.3 -1.2,-2.1 -2.7,-4 -4.4,-5.5 l 5.3,-26.6 c 0.9,-4.3 4.7,-7.3 8.9,-7.3 0.5,0 1.1,0.1 1.6,0.1 l 35.7,6.4 c 0.1,3.3 0.8,8.7 3.6,11.2 3.4,3 9.2,2 13.5,-0.2 1.7,3.3 4.8,7.8 9.3,7.8 0.3,0 0.6,0 0.9,-0.1 3.3,-0.5 6.3,-2.2 8.5,-3.7 1.7,3 4.6,6.8 8.3,7.4 3.3,0.5 6.1,-0.5 7.9,-1.6 2.5,1.9 6.4,3.4 10.7,1.5 3.7,-1.7 5.9,-4.1 7,-6 l 9.5,2.1 c 4.8,1.1 7.8,5.7 6.9,10.5 l -4.9,25.9 c -2.8,0.7 -5.5,2.1 -7.9,4.2 -0.3,0.3 -0.7,0.6 -1,0.9 -3.6,3.3 -6.4,7.9 -7.8,12.7 -0.3,0.9 -0.5,1.8 -0.7,2.7 -1.3,6.8 -0.2,13.1 3.1,17.9 1.6,2.3 3.6,4.1 6.1,5.6 l -2.2,11.6 c -0.2,0.3 -0.3,0.7 -0.3,1.2 0,0.1 0,0.2 0,0.3 l -3.2,16.9 c -0.1,2.6 -1.5,4.6 -3.5,6 z M 57.9,269.6 c 0.1,-0.6 0.3,-1.3 0.5,-1.9 1.9,-6.2 6.6,-11.5 12.7,-14.5 2.4,-1.2 4.9,-1.9 7.2,-2.1 2.3,-0.2 4.5,0.1 6.4,0.9 0,0 0.1,0 0.1,0.1 0.4,0.2 0.8,0.4 1.2,0.7 1.4,0.9 2.7,2.2 3.7,3.8 1.1,1.7 2,3.7 2.6,6 1,3.7 1,7.7 0.3,11.3 -0.6,2.9 -1.7,5.7 -3.3,7.9 -1.7,2.4 -3.7,3.9 -5.6,4.9 -2.3,1.1 -4.5,1.4 -6.3,1.4 -2.2,0 -3.7,-0.5 -3.8,-0.6 -1.5,-0.5 -3.2,0.3 -3.7,1.8 -0.5,1.5 0.3,3.2 1.8,3.7 1.2,0.4 2.8,0.8 4.6,0.9 l -0.7,3.2 C 64.4,292.3 55.3,281.9 57.9,269.6 Z m 179,8.8 c -1.6,-0.8 -3.2,-1.4 -4.9,-1.7 -0.6,-0.1 -1.2,-0.2 -1.8,-0.3 l 4.6,-24.4 c 1.5,-7.9 -3.5,-15.5 -11.4,-17.3 l -11.7,-2.6 c -0.2,-0.1 -0.5,-0.1 -0.7,-0.1 -1.2,0 -2.3,0.8 -2.7,2 0,0.1 -0.3,0.9 -1.1,1.9 -0.8,1 -2.1,2.2 -4.1,3.1 -3,1.4 -5.4,-1.4 -5.7,-1.7 l -0.5,-0.6 c 8.3,-13 -12.3,-24.7 -33.9,-26.7 -15.1,-1.4 -21.7,2.5 -24.5,5.3 L 108,209.9 c -7.9,-1.4 -15.7,3.9 -17.2,11.8 l -4.9,24.6 c -3,-1.1 -6.4,-1.3 -10,-0.7 -3.8,-11.3 -8.9,-38.3 15.2,-67.2 0.7,-0.9 2.2,-0.6 2.5,0.5 1.1,3.6 3.7,9.8 9.5,12.8 1.5,0.8 3.2,-0.6 2.8,-2.2 -1.5,-6.3 -2.5,-19.8 10.7,-32.7 16.9,-16.6 37.3,-30.4 40.9,-50.5 0.3,-1.7 2.3,-2.3 3.5,-1.1 6.7,6.8 20.8,25.8 7.2,53.4 0,0 4.6,4.9 18,0.7 13.4,-4.2 14.8,-20.1 18.4,-18.7 3.5,1.4 0.3,14.2 19.8,36.3 19.4,22 12.4,44.3 12.4,44.3 0,0 8,2.5 14.5,-11.1 0.4,-0.9 1.7,-0.8 2.1,0.1 3.6,8.6 13.5,41.1 -16.5,68.2 z"/>
    <path fill="#b83232" d="m 132.9,172.5 c -7.9,0 -14.4,6.4 -14.4,14.4 0,8 6.4,14.4 14.4,14.4 7.9,0 14.4,-6.4 14.4,-14.4 0,-8 -6.4,-14.4 -14.4,-14.4 z m -1.6,16.2 c -3.4,0 -6.1,-2.7 -6.1,-6.1 0,-3.4 2.7,-6.1 6.1,-6.1 3.4,0 6.1,2.7 6.1,6.1 0,3.4 -2.7,6.1 -6.1,6.1 z"/>
    <path fill="#b83232" d="m 209.5,186.9 c -8,0 -14.4,6.4 -14.4,14.4 0,8 6.4,14.4 14.4,14.4 7.9,0 14.4,-6.4 14.4,-14.4 0,-8 -6.5,-14.4 -14.4,-14.4 z m -2,15.9 c -3.4,0 -6.1,-2.7 -6.1,-6.1 0,-3.4 2.7,-6.1 6.1,-6.1 3.4,0 6.1,2.7 6.1,6.1 0,3.4 -2.7,6.1 -6.1,6.1 z"/>
    <path fill="#b83232" d="m 204.7,275.7 -54.8,-12 c -1.6,-0.3 -3.1,0.7 -3.5,2.2 v 0 c -0.3,1.6 0.7,3.1 2.3,3.5 l 54.7,12 c 0.2,0 0.3,0.1 0.5,0.1 1.4,0.1 2.7,-0.9 3,-2.3 0.4,-1.6 -0.7,-3.1 -2.2,-3.5 z"/>
    <path fill="#b83232" d="m 139.5,254.3 c 0.6,-2.9 -1.3,-5.8 -4.2,-6.4 L 116.8,244 c -2.9,-0.6 -5.8,1.3 -6.4,4.2 l -1.9,9.4 v 0 l -1.9,9.1 c -0.6,2.9 1.3,5.8 4.2,6.4 l 18.5,3.8 c 2.9,0.6 5.8,-1.3 6.4,-4.1 l 1.8,-8.8 z"/>
    <path fill="#b83232" d="m 195.3,314.5 -54.8,-12 c -1.6,-0.3 -3.1,0.7 -3.5,2.2 -0.3,1.6 0.7,3.1 2.2,3.5 l 54.8,12 c 0.2,0.1 0.3,0.1 0.5,0.1 1.4,0.1 2.7,-0.9 3,-2.3 0.4,-1.5 -0.6,-3.1 -2.2,-3.5 z"/>
    <path fill="#b83232" d="m 126,286.8 -18.5,-3.9 c -2.9,-0.6 -5.7,1.3 -6.4,4.2 l -3.8,18.5 c -0.6,2.9 1.3,5.7 4.2,6.3 l 18.5,3.9 c 2.9,0.6 5.8,-1.3 6.4,-4.2 l 3.9,-18.5 c 0.5,-2.9 -1.4,-5.7 -4.3,-6.3 z"/>
  </g>
  <g id="wordmark" fill="#ffffff">
    <path d="m 452.5,208.8 c 0,37.3 -16.1,65.1 -45.4,72.9 -7.6,2 -18.3,3.1 -32.2,3.1 H 323.7 V 149.1 c 0,-10.5 5.1,-16.1 15.7,-16.3 h 43.8 c 48.2,-0.1 69.3,27.4 69.3,76 z m -69.4,-49.5 h -28.8 v 98 h 24.8 c 30.9,0 41.6,-16.5 41.6,-48.5 0,-30.4 -9.4,-49.5 -37.6,-49.5 z"/>
    <path d="m 519.6,287.5 c -35.8,-1.1 -53.7,-21.9 -53.7,-62.2 0,-40.3 18.1,-60.4 54.1,-60.6 37.6,0 55.2,23 53,69.3 h -76.5 c 1.1,18.1 8.9,27.3 23.5,27.3 6.9,0 13.4,-2.9 19.2,-8.5 2.7,-2.9 6,-4.2 10.1,-4.2 h 21.9 c -6.5,25 -22.6,38.9 -51.6,38.9 z M 497,212.8 h 44.5 c -1.8,-15.7 -9.2,-23.7 -21.9,-23.7 -12.8,0 -20.4,8 -22.6,23.7 z"/>
    <path d="m 715.1,287.5 c -35.8,-1.1 -53.7,-21.9 -53.7,-62.2 0,-40.3 18.1,-60.4 54.1,-60.6 37.6,0 55.2,23 53,69.3 H 692 c 1.1,18.1 8.9,27.3 23.5,27.3 6.9,0 13.4,-2.9 19.2,-8.5 2.7,-2.9 6,-4.2 10.1,-4.2 h 21.9 c -6.4,25 -22.5,38.9 -51.6,38.9 z M 692.5,212.8 H 737 c -1.8,-15.7 -9.2,-23.7 -21.9,-23.7 -12.7,0 -20.3,8 -22.6,23.7 z"/>
    <path d="m 782.4,223.8 c 0.9,-38.2 21.2,-57.3 60.8,-57.3 h 4.2 v 30.9 h -10.1 c -16.5,0 -24.8,8.7 -24.8,25.9 v 61.5 h -30.2 v -61 z"/>
    <path d="m 947,284.8 c -9.8,-0.7 -14.8,-5.4 -14.8,-14.8 v -60.8 c -0.7,-12.3 -7.4,-18.3 -20.6,-18.3 -13.2,0 -19.9,6 -20.1,18.3 v 75.6 h -30.2 v -69.6 c 0,-33.8 17,-50.5 50.8,-50.5 33.8,0 50.3,16.8 50.1,50.5 v 69.6 z"/>
    <path d="m 1082.3,226.2 c 0,40.7 -18.1,61.3 -53.9,61.3 -35.8,0 -53.7,-20.6 -53.7,-61.3 0,-41.2 17.9,-61.5 53.7,-61.5 35.8,0 53.9,20.4 53.9,61.5 z m -77.3,0 c 0.2,23 8,34.7 23.3,34.7 15.2,0 22.8,-12.1 23,-35.6 0,-23 -7.6,-34.4 -22.8,-34.4 -15.7,0 -23.5,11 -23.5,35.3 z"/>
    <path d="m 627.2,131.9 c -1.1,0 -2.1,0 -2.8,0 -0.2,0 -0.3,0 -0.5,0 H 623 v 0 c -21.3,0.4 -34,9.4 -32.9,31.5 V 284.8 H 620 v -89 h 20.4 c 8.1,0 14.8,-6.9 14.8,-15 v -6.9 h -35.6 v -7.8 c 0.7,-5.8 4.5,-8.7 11.4,-8.7 h 24.2 V 147 132.8 131.9 Z"/>
  </g>
</svg>
